# xmcd
#
# Track frame offsets: 
#        150
#        19538
#        42139
#        70625
#        94651
#        117127
#        134558
#        162261
#        182037
#        206575
#        235604
#        252245
#
# Disc length: 3694 seconds
#
# Revision: 0
# Processed by: cddbd v1.5.2PL0 Copyright (c) Steve Scherf et al.
# Submitted via: ExactAudioCopyFreeDBPlugin 1.0
#
DISCID=960e6c0c
DTITLE=Michal Prokop and Framus Five - Sto roků na cestě
DYEAR=2012
DGENRE=Blues
TTITLE0=Michal Prokol and Framus Five - Zatmění
TTITLE1=Michal Prokol and Framus Five - Silueta
TTITLE2=Michal Prokol and Framus Five - Někdy a někde
TTITLE3=Michal Prokol and Framus Five - Kartáček na zuby
TTITLE4=Michal Prokol and Framus Five - Obyčejnej chlápek
TTITLE5=Michal Prokol and Framus Five - Kuplířka Lukrécie
TTITLE6=Michal Prokol and Framus Five - Šeherezáda
TTITLE7=Michal Prokol and Framus Five - Zítra to roztočíme
TTITLE8=Michal Prokol and Framus Five - Stodolní
TTITLE9=Michal Prokol and Framus Five - Sto roků samoty
TTITLE10=Michal Prokol and Framus Five - Dobrý ráno, miláčku!
TTITLE11=Michal Prokol and Framus Five - Útěky
EXTD=
EXTT0=
EXTT1=
EXTT2=
EXTT3=
EXTT4=
EXTT5=
EXTT6=
EXTT7=
EXTT8=
EXTT9=
EXTT10=
EXTT11=
PLAYORDER=
